<mxfile host="app.diagrams.net" modified="2022-11-11T01:43:31.935Z" agent="5.0 (Windows NT 10.0; Win64; x64) AppleWebKit/537.36 (KHTML, like Gecko) Chrome/107.0.0.0 Safari/537.36 Edg/107.0.1418.26" etag="-jMzCeVRqovb6yKHn6xv" version="20.5.1" type="github">
  <diagram id="i65bP73NKgWxM7OTWlvx" name="Page-1">
    <mxGraphModel dx="1218" dy="559" grid="1" gridSize="10" guides="1" tooltips="1" connect="1" arrows="1" fold="1" page="1" pageScale="1" pageWidth="850" pageHeight="1100" math="0" shadow="0">
      <root>
        <mxCell id="0" />
        <mxCell id="1" parent="0" />
        <mxCell id="_xna3AVxRRTy8oBYTtng-2" value="Employee" style="shape=umlActor;verticalLabelPosition=bottom;verticalAlign=top;html=1;outlineConnect=0;" vertex="1" parent="1">
          <mxGeometry x="40" y="540" width="30" height="60" as="geometry" />
        </mxCell>
        <mxCell id="_xna3AVxRRTy8oBYTtng-5" value="Travel Office" style="shape=umlActor;verticalLabelPosition=bottom;verticalAlign=top;html=1;outlineConnect=0;" vertex="1" parent="1">
          <mxGeometry x="720" y="300" width="30" height="60" as="geometry" />
        </mxCell>
        <mxCell id="_xna3AVxRRTy8oBYTtng-7" value="Supervisor" style="shape=umlActor;verticalLabelPosition=bottom;verticalAlign=top;html=1;outlineConnect=0;" vertex="1" parent="1">
          <mxGeometry x="720" y="540" width="30" height="60" as="geometry" />
        </mxCell>
        <mxCell id="_xna3AVxRRTy8oBYTtng-9" value="Divisional Manager" style="shape=umlActor;verticalLabelPosition=bottom;verticalAlign=top;html=1;outlineConnect=0;" vertex="1" parent="1">
          <mxGeometry x="720" y="820" width="30" height="60" as="geometry" />
        </mxCell>
        <mxCell id="_xna3AVxRRTy8oBYTtng-11" value="Review and Resubmission" style="ellipse;whiteSpace=wrap;html=1;" vertex="1" parent="1">
          <mxGeometry x="220" y="420" width="80" height="60" as="geometry" />
        </mxCell>
        <mxCell id="_xna3AVxRRTy8oBYTtng-12" value="Travel Authorization Request" style="ellipse;whiteSpace=wrap;html=1;" vertex="1" parent="1">
          <mxGeometry x="220" y="300" width="80" height="60" as="geometry" />
        </mxCell>
        <mxCell id="_xna3AVxRRTy8oBYTtng-13" value="submit through system" style="ellipse;whiteSpace=wrap;html=1;" vertex="1" parent="1">
          <mxGeometry x="230" y="510" width="80" height="60" as="geometry" />
        </mxCell>
        <mxCell id="_xna3AVxRRTy8oBYTtng-14" value="Book the travel" style="ellipse;whiteSpace=wrap;html=1;" vertex="1" parent="1">
          <mxGeometry x="240" y="600" width="80" height="60" as="geometry" />
        </mxCell>
        <mxCell id="_xna3AVxRRTy8oBYTtng-16" value="specify travel expense &amp;amp; submit relevant receipt" style="ellipse;whiteSpace=wrap;html=1;" vertex="1" parent="1">
          <mxGeometry x="190" y="140" width="140" height="90" as="geometry" />
        </mxCell>
        <mxCell id="_xna3AVxRRTy8oBYTtng-18" value="Complete final report" style="ellipse;whiteSpace=wrap;html=1;" vertex="1" parent="1">
          <mxGeometry x="230" y="960" width="100" height="60" as="geometry" />
        </mxCell>
        <mxCell id="_xna3AVxRRTy8oBYTtng-20" value="Requests receive for technical correctness" style="ellipse;whiteSpace=wrap;html=1;" vertex="1" parent="1">
          <mxGeometry x="435" y="150" width="120" height="80" as="geometry" />
        </mxCell>
        <mxCell id="_xna3AVxRRTy8oBYTtng-21" value="Technical Review" style="ellipse;whiteSpace=wrap;html=1;" vertex="1" parent="1">
          <mxGeometry x="450" y="570" width="80" height="60" as="geometry" />
        </mxCell>
        <mxCell id="_xna3AVxRRTy8oBYTtng-23" value="Approval for travel Request" style="ellipse;whiteSpace=wrap;html=1;" vertex="1" parent="1">
          <mxGeometry x="450" y="330" width="90" height="60" as="geometry" />
        </mxCell>
        <mxCell id="_xna3AVxRRTy8oBYTtng-24" value="" style="endArrow=none;html=1;rounded=0;entryX=0;entryY=0.5;entryDx=0;entryDy=0;exitX=1;exitY=0.3333333333333333;exitDx=0;exitDy=0;exitPerimeter=0;" edge="1" parent="1" source="_xna3AVxRRTy8oBYTtng-2" target="_xna3AVxRRTy8oBYTtng-12">
          <mxGeometry width="50" height="50" relative="1" as="geometry">
            <mxPoint x="90" y="260" as="sourcePoint" />
            <mxPoint x="140" y="210" as="targetPoint" />
          </mxGeometry>
        </mxCell>
        <mxCell id="_xna3AVxRRTy8oBYTtng-25" value="" style="endArrow=none;html=1;rounded=0;entryX=0;entryY=0.5;entryDx=0;entryDy=0;exitX=1;exitY=0.3333333333333333;exitDx=0;exitDy=0;exitPerimeter=0;" edge="1" parent="1" source="_xna3AVxRRTy8oBYTtng-2" target="_xna3AVxRRTy8oBYTtng-13">
          <mxGeometry width="50" height="50" relative="1" as="geometry">
            <mxPoint x="50" y="320" as="sourcePoint" />
            <mxPoint x="140" y="210" as="targetPoint" />
          </mxGeometry>
        </mxCell>
        <mxCell id="_xna3AVxRRTy8oBYTtng-26" value="" style="endArrow=none;html=1;rounded=0;entryX=0;entryY=0.5;entryDx=0;entryDy=0;exitX=1;exitY=0.3333333333333333;exitDx=0;exitDy=0;exitPerimeter=0;" edge="1" parent="1" source="_xna3AVxRRTy8oBYTtng-2" target="_xna3AVxRRTy8oBYTtng-14">
          <mxGeometry width="50" height="50" relative="1" as="geometry">
            <mxPoint x="50" y="320" as="sourcePoint" />
            <mxPoint x="140" y="210" as="targetPoint" />
          </mxGeometry>
        </mxCell>
        <mxCell id="_xna3AVxRRTy8oBYTtng-30" value="" style="endArrow=none;html=1;rounded=0;exitX=1;exitY=0.5;exitDx=0;exitDy=0;entryX=0;entryY=0.3333333333333333;entryDx=0;entryDy=0;entryPerimeter=0;" edge="1" parent="1" source="_xna3AVxRRTy8oBYTtng-23" target="_xna3AVxRRTy8oBYTtng-9">
          <mxGeometry width="50" height="50" relative="1" as="geometry">
            <mxPoint x="530" y="370" as="sourcePoint" />
            <mxPoint x="580" y="320" as="targetPoint" />
          </mxGeometry>
        </mxCell>
        <mxCell id="_xna3AVxRRTy8oBYTtng-31" value="" style="endArrow=none;html=1;rounded=0;exitX=0;exitY=0.3333333333333333;exitDx=0;exitDy=0;exitPerimeter=0;entryX=1;entryY=0.5;entryDx=0;entryDy=0;" edge="1" parent="1" source="_xna3AVxRRTy8oBYTtng-5" target="_xna3AVxRRTy8oBYTtng-20">
          <mxGeometry width="50" height="50" relative="1" as="geometry">
            <mxPoint x="470" y="130" as="sourcePoint" />
            <mxPoint x="520" y="80" as="targetPoint" />
          </mxGeometry>
        </mxCell>
        <mxCell id="_xna3AVxRRTy8oBYTtng-32" value="" style="endArrow=none;html=1;rounded=0;exitX=1;exitY=0.5;exitDx=0;exitDy=0;entryX=0;entryY=0.3333333333333333;entryDx=0;entryDy=0;entryPerimeter=0;" edge="1" parent="1" source="_xna3AVxRRTy8oBYTtng-21" target="_xna3AVxRRTy8oBYTtng-5">
          <mxGeometry width="50" height="50" relative="1" as="geometry">
            <mxPoint x="530" y="170" as="sourcePoint" />
            <mxPoint x="650" y="360" as="targetPoint" />
          </mxGeometry>
        </mxCell>
        <mxCell id="_xna3AVxRRTy8oBYTtng-33" value="" style="endArrow=none;html=1;rounded=0;entryX=0;entryY=0.3333333333333333;entryDx=0;entryDy=0;entryPerimeter=0;exitX=1.004;exitY=0.387;exitDx=0;exitDy=0;exitPerimeter=0;" edge="1" parent="1" source="_xna3AVxRRTy8oBYTtng-23" target="_xna3AVxRRTy8oBYTtng-7">
          <mxGeometry width="50" height="50" relative="1" as="geometry">
            <mxPoint x="490" y="250" as="sourcePoint" />
            <mxPoint x="530" y="220" as="targetPoint" />
          </mxGeometry>
        </mxCell>
        <mxCell id="_xna3AVxRRTy8oBYTtng-35" value="Reject travel request" style="ellipse;whiteSpace=wrap;html=1;" vertex="1" parent="1">
          <mxGeometry x="450" y="460" width="80" height="60" as="geometry" />
        </mxCell>
        <mxCell id="_xna3AVxRRTy8oBYTtng-36" value="" style="endArrow=none;html=1;rounded=0;exitX=1;exitY=0.5;exitDx=0;exitDy=0;entryX=0;entryY=0.3333333333333333;entryDx=0;entryDy=0;entryPerimeter=0;" edge="1" parent="1" source="_xna3AVxRRTy8oBYTtng-35" target="_xna3AVxRRTy8oBYTtng-7">
          <mxGeometry width="50" height="50" relative="1" as="geometry">
            <mxPoint x="480" y="360" as="sourcePoint" />
            <mxPoint x="650" y="480" as="targetPoint" />
          </mxGeometry>
        </mxCell>
        <mxCell id="_xna3AVxRRTy8oBYTtng-37" value="" style="endArrow=none;html=1;rounded=0;exitX=1;exitY=0.5;exitDx=0;exitDy=0;entryX=0;entryY=0.3333333333333333;entryDx=0;entryDy=0;entryPerimeter=0;" edge="1" parent="1" source="_xna3AVxRRTy8oBYTtng-35" target="_xna3AVxRRTy8oBYTtng-9">
          <mxGeometry width="50" height="50" relative="1" as="geometry">
            <mxPoint x="480" y="360" as="sourcePoint" />
            <mxPoint x="580" y="320" as="targetPoint" />
          </mxGeometry>
        </mxCell>
        <mxCell id="_xna3AVxRRTy8oBYTtng-38" value="Record the travel expense" style="ellipse;whiteSpace=wrap;html=1;" vertex="1" parent="1">
          <mxGeometry x="235" y="720" width="90" height="80" as="geometry" />
        </mxCell>
        <mxCell id="_xna3AVxRRTy8oBYTtng-39" value="" style="endArrow=none;html=1;rounded=0;entryX=0;entryY=0.5;entryDx=0;entryDy=0;exitX=1;exitY=0.3333333333333333;exitDx=0;exitDy=0;exitPerimeter=0;" edge="1" parent="1" source="_xna3AVxRRTy8oBYTtng-2" target="_xna3AVxRRTy8oBYTtng-38">
          <mxGeometry width="50" height="50" relative="1" as="geometry">
            <mxPoint x="50" y="320" as="sourcePoint" />
            <mxPoint x="140" y="210" as="targetPoint" />
          </mxGeometry>
        </mxCell>
        <mxCell id="_xna3AVxRRTy8oBYTtng-40" value="" style="endArrow=none;html=1;rounded=0;entryX=0;entryY=0.5;entryDx=0;entryDy=0;exitX=1;exitY=0.3333333333333333;exitDx=0;exitDy=0;exitPerimeter=0;" edge="1" parent="1" source="_xna3AVxRRTy8oBYTtng-2" target="_xna3AVxRRTy8oBYTtng-18">
          <mxGeometry width="50" height="50" relative="1" as="geometry">
            <mxPoint x="50" y="320" as="sourcePoint" />
            <mxPoint x="140" y="210" as="targetPoint" />
          </mxGeometry>
        </mxCell>
        <mxCell id="_xna3AVxRRTy8oBYTtng-42" value="Formal expense review" style="ellipse;whiteSpace=wrap;html=1;" vertex="1" parent="1">
          <mxGeometry x="455" y="830" width="80" height="60" as="geometry" />
        </mxCell>
        <mxCell id="_xna3AVxRRTy8oBYTtng-44" value="" style="endArrow=none;html=1;rounded=0;exitX=1;exitY=0.5;exitDx=0;exitDy=0;entryX=0;entryY=0.3333333333333333;entryDx=0;entryDy=0;entryPerimeter=0;" edge="1" parent="1" source="_xna3AVxRRTy8oBYTtng-42" target="_xna3AVxRRTy8oBYTtng-5">
          <mxGeometry width="50" height="50" relative="1" as="geometry">
            <mxPoint x="560" y="830" as="sourcePoint" />
            <mxPoint x="720" y="560" as="targetPoint" />
          </mxGeometry>
        </mxCell>
        <mxCell id="_xna3AVxRRTy8oBYTtng-45" value="Approval Travel Report" style="ellipse;whiteSpace=wrap;html=1;" vertex="1" parent="1">
          <mxGeometry x="450" y="710" width="80" height="60" as="geometry" />
        </mxCell>
        <mxCell id="_xna3AVxRRTy8oBYTtng-46" value="" style="endArrow=none;html=1;rounded=0;exitX=1;exitY=0.5;exitDx=0;exitDy=0;entryX=0;entryY=0.3333333333333333;entryDx=0;entryDy=0;entryPerimeter=0;" edge="1" parent="1" source="_xna3AVxRRTy8oBYTtng-45" target="_xna3AVxRRTy8oBYTtng-7">
          <mxGeometry width="50" height="50" relative="1" as="geometry">
            <mxPoint x="670" y="610" as="sourcePoint" />
            <mxPoint x="700" y="580" as="targetPoint" />
          </mxGeometry>
        </mxCell>
        <mxCell id="_xna3AVxRRTy8oBYTtng-47" value="" style="endArrow=none;html=1;rounded=0;entryX=0;entryY=0.3333333333333333;entryDx=0;entryDy=0;entryPerimeter=0;exitX=1;exitY=0.5;exitDx=0;exitDy=0;" edge="1" parent="1" source="_xna3AVxRRTy8oBYTtng-45" target="_xna3AVxRRTy8oBYTtng-9">
          <mxGeometry width="50" height="50" relative="1" as="geometry">
            <mxPoint x="540" y="740" as="sourcePoint" />
            <mxPoint x="590" y="690" as="targetPoint" />
          </mxGeometry>
        </mxCell>
        <mxCell id="_xna3AVxRRTy8oBYTtng-51" value="&amp;lt;&amp;lt;Includes&amp;gt;&amp;gt;" style="endArrow=open;endSize=12;dashed=1;html=1;rounded=0;entryX=0.5;entryY=0;entryDx=0;entryDy=0;exitX=0.5;exitY=1;exitDx=0;exitDy=0;" edge="1" parent="1" source="_xna3AVxRRTy8oBYTtng-12" target="_xna3AVxRRTy8oBYTtng-11">
          <mxGeometry width="160" relative="1" as="geometry">
            <mxPoint x="250" y="340" as="sourcePoint" />
            <mxPoint x="410" y="320" as="targetPoint" />
          </mxGeometry>
        </mxCell>
        <mxCell id="_xna3AVxRRTy8oBYTtng-52" value="&amp;lt;&amp;lt;Includes&amp;gt;&amp;gt;" style="endArrow=open;endSize=12;dashed=1;html=1;rounded=0;entryX=0.5;entryY=1;entryDx=0;entryDy=0;exitX=0.5;exitY=0;exitDx=0;exitDy=0;" edge="1" parent="1" source="_xna3AVxRRTy8oBYTtng-12" target="_xna3AVxRRTy8oBYTtng-16">
          <mxGeometry width="160" relative="1" as="geometry">
            <mxPoint x="210" y="250" as="sourcePoint" />
            <mxPoint x="410" y="260" as="targetPoint" />
          </mxGeometry>
        </mxCell>
        <mxCell id="_xna3AVxRRTy8oBYTtng-53" value="&amp;lt;&amp;lt;includes&amp;gt;&amp;gt;" style="html=1;verticalAlign=bottom;endArrow=open;dashed=1;endSize=8;rounded=0;entryX=0.5;entryY=0;entryDx=0;entryDy=0;exitX=0.5;exitY=1;exitDx=0;exitDy=0;" edge="1" parent="1" source="_xna3AVxRRTy8oBYTtng-20" target="_xna3AVxRRTy8oBYTtng-23">
          <mxGeometry relative="1" as="geometry">
            <mxPoint x="600" y="289.58" as="sourcePoint" />
            <mxPoint x="520" y="289.58" as="targetPoint" />
          </mxGeometry>
        </mxCell>
        <mxCell id="_xna3AVxRRTy8oBYTtng-54" value="&amp;lt;&amp;lt;Includes&amp;gt;&amp;gt;" style="html=1;verticalAlign=bottom;endArrow=open;dashed=1;endSize=8;rounded=0;entryX=0.5;entryY=0;entryDx=0;entryDy=0;exitX=0.5;exitY=1;exitDx=0;exitDy=0;" edge="1" parent="1" source="_xna3AVxRRTy8oBYTtng-21" target="_xna3AVxRRTy8oBYTtng-45">
          <mxGeometry relative="1" as="geometry">
            <mxPoint x="565" y="660" as="sourcePoint" />
            <mxPoint x="485" y="660" as="targetPoint" />
          </mxGeometry>
        </mxCell>
        <mxCell id="_xna3AVxRRTy8oBYTtng-55" value="submit the travel report" style="ellipse;whiteSpace=wrap;html=1;" vertex="1" parent="1">
          <mxGeometry x="240" y="840" width="80" height="60" as="geometry" />
        </mxCell>
        <mxCell id="_xna3AVxRRTy8oBYTtng-56" value="" style="endArrow=none;html=1;rounded=0;entryX=0;entryY=0.5;entryDx=0;entryDy=0;exitX=1;exitY=0.3333333333333333;exitDx=0;exitDy=0;exitPerimeter=0;" edge="1" parent="1" source="_xna3AVxRRTy8oBYTtng-2" target="_xna3AVxRRTy8oBYTtng-55">
          <mxGeometry width="50" height="50" relative="1" as="geometry">
            <mxPoint x="90" y="560" as="sourcePoint" />
            <mxPoint x="260" y="660" as="targetPoint" />
          </mxGeometry>
        </mxCell>
        <mxCell id="_xna3AVxRRTy8oBYTtng-58" value="&amp;lt;&amp;lt;Includes&amp;gt;&amp;gt;" style="html=1;verticalAlign=bottom;endArrow=open;dashed=1;endSize=8;rounded=0;exitX=0.5;exitY=1;exitDx=0;exitDy=0;" edge="1" parent="1" source="_xna3AVxRRTy8oBYTtng-55" target="_xna3AVxRRTy8oBYTtng-18">
          <mxGeometry relative="1" as="geometry">
            <mxPoint x="400" y="940" as="sourcePoint" />
            <mxPoint x="320" y="940" as="targetPoint" />
          </mxGeometry>
        </mxCell>
      </root>
    </mxGraphModel>
  </diagram>
</mxfile>
